<svg id="Layer_1" data-name="Layer 1" xmlns="http://www.w3.org/2000/svg" viewBox="0 0 16 7.19"><path d="M3.43,5.88A2.29,2.29,0,1,1,1.14,8.17,2.29,2.29,0,0,1,3.43,5.88m0-1.14A3.43,3.43,0,1,0,6.86,8.17,3.43,3.43,0,0,0,3.43,4.74Z" transform="translate(0 -4.41)"/><path d="M12.57,5.88a2.29,2.29,0,1,1-2.28,2.29,2.3,2.3,0,0,1,2.28-2.29m0-1.14A3.43,3.43,0,1,0,16,8.17a3.43,3.43,0,0,0-3.43-3.43Z" transform="translate(0 -4.41)"/><path d="M7.08,4.41h.38L8,5l.51-.62h.38V6H8.42V5.07L8,5.57H7.93l-.43-.5V6H7.08Z" transform="translate(0 -4.41)"/><path d="M7.78,7.12h.45l.7,1.57H8.47l-.1-.26H7.63l-.1.26H7.07Zm.44,1L8,7.52l-.22.55Z" transform="translate(0 -4.41)"/><path d="M8.11,11.17,8,10.92l-.13.24-.16.24H7.15l.52-.78-.49-.79h.5l.14.24.13.24.14-.24.15-.24h.51l-.5.77.53.8H8.26Z" transform="translate(0 -4.41)"/><circle cx="3.43" cy="3.76" r="0.95"/><circle cx="12.57" cy="3.76" r="0.95"/></svg>